<svg width="39" height="48" viewBox="0 0 39 48" fill="none" xmlns="http://www.w3.org/2000/svg">
<g clip-path="url(#clip0_267_1875)">
<path d="M13.6875 0.818987C23.2242 0.766019 28.081 0.892862 31.4844 1.73269C36.1558 2.88538 37.0569 6.85806 37.7581 13.161C38.1348 16.5472 37.6522 21.9092 37.6243 26.2834C37.5842 32.5623 37.6776 43.5951 37.5759 45.1205C37.3838 48.003 32.8384 47.754 32.6569 45.1221C32.4107 41.5508 32.8083 30.5252 32.1064 26.9054C31.1168 21.8014 28.2151 21.103 24.7546 20.7419C22.7544 20.5332 20.4807 20.337 18.9781 19.0003C17.9081 18.0484 17.2672 15.0592 17.2672 15.0592" stroke="#0F1724" stroke-width="1.61773" stroke-miterlimit="11.2" stroke-linecap="round" stroke-linejoin="round"/>
<path d="M28.021 10.1162C28.6 10.1162 29.0694 9.43433 29.0694 8.59323C29.0694 7.75214 28.6 7.07031 28.021 7.07031C27.442 7.07031 26.9727 7.75214 26.9727 8.59323C26.9727 9.43433 27.442 10.1162 28.021 10.1162Z" fill="#0F1724"/>
<path d="M8.99377 9.50367C10.0139 9.87167 10.5846 10.7962 9.79444 11.8723C9.04221 12.8967 7.13507 12.7933 6.04529 11.7513C4.61875 10.3873 4.79043 8.0854 6.13055 6.72939C7.85193 4.9876 10.7252 5.20985 12.4074 6.88179C14.5329 8.99439 14.2479 12.4878 12.1688 14.5216C9.57922 17.0546 5.3314 16.7003 2.87107 14.1809C-0.154387 11.0828 0.284791 6.03604 3.33884 3.12674C3.93167 2.562 5.75379 1.29597 8.39183 0.946683C9.43756 0.808226 12.1973 0.804726 13.7842 0.819174" stroke="#0F1724" stroke-width="1.61773" stroke-linecap="round" stroke-linejoin="round"/>
</g>
<defs>
<clipPath id="clip0_267_1875">
<rect width="38.7129" height="48" fill="white"/>
</clipPath>
</defs>
</svg>
