<svg width="2394" height="2968" viewBox="0 0 2394 2968" fill="none" xmlns="http://www.w3.org/2000/svg">
<path d="M846.047 50.6776C1435.56 47.4034 1735.78 55.2442 1946.17 107.158C2234.92 178.411 2290.62 423.983 2333.97 813.601C2357.26 1022.91 2327.43 1354.37 2325.7 1624.76C2323.22 2012.89 2329 2694.88 2322.71 2789.17C2310.83 2967.36 2029.86 2951.97 2018.64 2789.28C2003.42 2568.52 2028 1886.97 1984.61 1663.21C1923.44 1347.71 1744.07 1304.53 1530.16 1282.21C1406.51 1269.31 1265.97 1257.18 1173.09 1174.55C1106.94 1115.71 1067.33 930.935 1067.33 930.935" stroke="white" stroke-width="99.9999" stroke-miterlimit="11.2" stroke-linecap="round" stroke-linejoin="round"/>
<path d="M1731.93 625.355C1767.72 625.355 1796.73 583.208 1796.73 531.216C1796.73 479.223 1767.72 437.076 1731.93 437.076C1696.14 437.076 1667.12 479.223 1667.12 531.216C1667.12 583.208 1696.14 625.355 1731.93 625.355Z" fill="white"/>
<path d="M555.823 587.504C618.885 610.252 654.162 667.399 605.316 733.918C558.817 797.242 440.927 790.853 373.562 726.442C285.381 642.127 295.994 499.833 378.833 416.011C485.24 308.343 662.85 322.081 766.834 425.433C898.223 556.022 880.608 771.967 752.085 897.687C592.012 1054.27 329.433 1032.36 177.348 876.625C-9.67045 685.115 17.4773 373.152 206.263 193.314C242.909 158.404 355.543 80.1444 518.614 58.5535C583.256 49.9948 753.852 49.7784 851.946 50.6715" stroke="white" stroke-width="99.9999" stroke-linecap="round" stroke-linejoin="round"/>
</svg>
