<svg width="65" height="80" viewBox="0 0 65 80" fill="none" xmlns="http://www.w3.org/2000/svg">
<g clip-path="url(#clip0_413_3853)">
<path d="M22.8125 1.36888C38.707 1.2806 46.8017 1.49201 52.4741 2.89173C60.2596 4.81287 61.7614 11.434 62.9301 21.9389C63.558 27.5825 62.7537 36.5192 62.7071 43.8096C62.6404 54.2745 62.7961 72.6623 62.6266 75.2047C62.3063 80.009 54.7306 79.5939 54.4282 75.2074C54.0178 69.2552 54.6804 50.8792 53.5107 44.8463C51.8613 36.3396 47.0251 35.1755 41.2577 34.5737C37.9239 34.2259 34.1345 33.8989 31.6302 31.671C29.8468 30.0845 28.7787 25.1025 28.7787 25.1025" stroke="#20A4C8" stroke-width="2.69621" stroke-miterlimit="11.2" stroke-linecap="round" stroke-linejoin="round"/>
<path d="M46.6965 16.8635C47.6615 16.8635 48.4438 15.7271 48.4438 14.3253C48.4438 12.9235 47.6615 11.7871 46.6965 11.7871C45.7315 11.7871 44.9492 12.9235 44.9492 14.3253C44.9492 15.7271 45.7315 16.8635 46.6965 16.8635Z" fill="#20A4C8"/>
<path d="M14.6354 15.4837C16.3357 16.097 17.2869 17.6378 15.9699 19.4313C14.7162 21.1386 11.5376 20.9664 9.72131 19.2297C7.34374 16.9564 7.62988 13.1199 9.86342 10.8598C12.7324 7.95687 17.5211 8.32729 20.3248 11.1139C23.8673 14.6348 23.3924 20.4572 19.9271 23.8469C15.6112 28.0686 8.53149 27.478 4.43095 23.279C-0.611477 18.1155 0.120485 9.70427 5.21057 4.85543C6.19861 3.91421 9.23548 1.80415 13.6322 1.22201C15.3751 0.991249 19.9747 0.985415 22.6196 1.0095" stroke="#20A4C8" stroke-width="2.69621" stroke-linecap="round" stroke-linejoin="round"/>
</g>
<defs>
<clipPath id="clip0_413_3853">
<rect width="64.5234" height="80" fill="white"/>
</clipPath>
</defs>
</svg>
