<svg width="218" height="54" viewBox="0 0 218 54" fill="none" xmlns="http://www.w3.org/2000/svg">
<g clip-path="url(#clip0_2062_7803)">
<path d="M25.8457 18.6807C27.8891 20.7162 27.8891 24.013 25.8457 26.0485L22.1493 29.7306L18.4529 26.0485C16.4094 24.013 16.4094 20.7162 18.4529 18.6807C20.4963 16.6452 23.8059 16.6452 25.8493 18.6807H25.8457Z" fill="white"/>
<path d="M37.8071 6.76572C46.4551 15.3803 46.4551 29.3489 37.8071 37.9635L34.1106 41.6455L28.13 35.6881L31.8264 32.006C37.1721 26.681 37.1721 18.0482 31.8264 12.7232C26.4806 7.39818 17.8143 7.39818 12.4685 12.7232C7.12277 18.0482 7.12277 26.681 12.4685 32.006L28.13 47.6067L22.1785 53.5351L5.55735 36.9784C-2.1493 28.3166 -1.84278 15.0604 6.48419 6.76572C15.1323 -1.84883 29.1553 -1.84883 37.8034 6.76572H37.8071Z" fill="white"/>
</g>
<path d="M65.967 38.403C64.7684 38.403 63.6162 38.217 62.5105 37.845C61.4152 37.4627 60.4542 36.9202 59.6275 36.2175C58.8009 35.5045 58.2067 34.652 57.845 33.66L61.3945 32.358C61.5392 32.7713 61.8337 33.1485 62.278 33.4895C62.7224 33.8305 63.2649 34.1043 63.9055 34.311C64.5462 34.5177 65.2334 34.621 65.967 34.621C66.7214 34.621 67.424 34.5073 68.075 34.28C68.7364 34.0423 69.2685 33.7168 69.6715 33.3035C70.0745 32.8798 70.276 32.389 70.276 31.831C70.276 31.2627 70.0642 30.7977 69.6405 30.436C69.2169 30.064 68.6744 29.7695 68.013 29.5525C67.3517 29.3355 66.6697 29.1702 65.967 29.0565C64.4274 28.8188 63.0479 28.452 61.8285 27.956C60.6092 27.46 59.643 26.7728 58.93 25.8945C58.2274 25.0162 57.876 23.8795 57.876 22.4845C57.876 21.1722 58.2532 20.0252 59.0075 19.0435C59.7619 18.0618 60.7539 17.2972 61.9835 16.7495C63.2132 16.2018 64.541 15.928 65.967 15.928C67.1554 15.928 68.3024 16.114 69.408 16.486C70.5137 16.858 71.4799 17.4005 72.3065 18.1135C73.1435 18.8265 73.7429 19.6842 74.1045 20.6865L70.5395 21.973C70.3949 21.5597 70.1004 21.1825 69.656 20.8415C69.2117 20.5005 68.6692 20.2318 68.0285 20.0355C67.3879 19.8288 66.7007 19.7255 65.967 19.7255C65.2334 19.7152 64.5359 19.834 63.8745 20.082C63.2235 20.3197 62.6914 20.6452 62.278 21.0585C61.8647 21.4718 61.658 21.9472 61.658 22.4845C61.658 23.1768 61.8492 23.6987 62.2315 24.05C62.6242 24.4013 63.146 24.6597 63.797 24.825C64.448 24.98 65.1714 25.1247 65.967 25.259C67.4137 25.4863 68.7519 25.8687 69.9815 26.406C71.2112 26.9433 72.198 27.6615 72.942 28.5605C73.686 29.4492 74.058 30.5393 74.058 31.831C74.058 33.1433 73.686 34.2955 72.942 35.2875C72.198 36.2692 71.2112 37.0338 69.9815 37.5815C68.7519 38.1292 67.4137 38.403 65.967 38.403ZM77.3365 22.5H81.1185V38H77.3365V22.5ZM79.2585 20.5005C78.7005 20.5005 78.2303 20.3197 77.848 19.958C77.4657 19.586 77.2745 19.121 77.2745 18.563C77.2745 18.0153 77.4657 17.5555 77.848 17.1835C78.2303 16.8115 78.6953 16.6255 79.243 16.6255C79.7907 16.6255 80.2505 16.8115 80.6225 17.1835C81.0048 17.5555 81.196 18.0153 81.196 18.563C81.196 19.121 81.01 19.586 80.638 19.958C80.266 20.3197 79.8062 20.5005 79.2585 20.5005ZM84.9232 38V22.5H88.7052V23.8795C89.2322 23.3215 89.8625 22.8823 90.5962 22.562C91.3299 22.2313 92.1204 22.066 92.9677 22.066C94.0424 22.066 95.0292 22.3192 95.9282 22.8255C96.8375 23.3318 97.5609 24.0087 98.0982 24.856C98.6459 24.0087 99.3692 23.3318 100.268 22.8255C101.167 22.3192 102.154 22.066 103.229 22.066C104.365 22.066 105.394 22.345 106.313 22.903C107.243 23.4507 107.982 24.1895 108.53 25.1195C109.088 26.0392 109.367 27.0673 109.367 28.204V38H105.585V29.2115C105.585 28.6122 105.435 28.0645 105.135 27.5685C104.846 27.0622 104.453 26.6592 103.957 26.3595C103.472 26.0495 102.924 25.8945 102.314 25.8945C101.705 25.8945 101.152 26.0443 100.656 26.344C100.17 26.6333 99.7774 27.026 99.4777 27.522C99.178 28.018 99.0282 28.5812 99.0282 29.2115V38H95.2462V29.2115C95.2462 28.5812 95.1015 28.018 94.8122 27.522C94.5229 27.026 94.1302 26.6333 93.6342 26.344C93.1382 26.0443 92.5854 25.8945 91.9757 25.8945C91.3764 25.8945 90.8287 26.0495 90.3327 26.3595C89.8367 26.6592 89.4389 27.0622 89.1392 27.5685C88.8499 28.0645 88.7052 28.6122 88.7052 29.2115V38H84.9232ZM116.454 45.75H112.672V22.5H116.454V24.4685C116.96 23.7658 117.58 23.1975 118.314 22.7635C119.058 22.3192 119.926 22.097 120.918 22.097C122.055 22.097 123.114 22.3088 124.096 22.7325C125.077 23.1562 125.94 23.7452 126.684 24.4995C127.438 25.2435 128.022 26.1063 128.436 27.088C128.859 28.0697 129.071 29.1237 129.071 30.25C129.071 31.3763 128.859 32.4355 128.436 33.4275C128.022 34.4195 127.438 35.2927 126.684 36.047C125.94 36.791 125.077 37.3748 124.096 37.7985C123.114 38.2222 122.055 38.434 120.918 38.434C119.926 38.434 119.058 38.217 118.314 37.783C117.58 37.3387 116.96 36.7652 116.454 36.0625V45.75ZM120.872 25.7395C120.086 25.7395 119.384 25.9462 118.764 26.3595C118.144 26.7625 117.658 27.305 117.307 27.987C116.955 28.669 116.78 29.4233 116.78 30.25C116.78 31.0767 116.955 31.8362 117.307 32.5285C117.658 33.2105 118.144 33.7582 118.764 34.1715C119.384 34.5745 120.086 34.776 120.872 34.776C121.667 34.776 122.396 34.5745 123.057 34.1715C123.718 33.7685 124.245 33.226 124.638 32.544C125.031 31.8517 125.227 31.087 125.227 30.25C125.227 29.4233 125.031 28.669 124.638 27.987C124.245 27.305 123.718 26.7625 123.057 26.3595C122.406 25.9462 121.678 25.7395 120.872 25.7395ZM131.49 38V14.75H135.272V38H131.49ZM145.776 38.403C144.35 38.403 143.048 38.0362 141.87 37.3025C140.702 36.5688 139.767 35.582 139.064 34.342C138.372 33.102 138.026 31.7328 138.026 30.2345C138.026 29.1082 138.227 28.0542 138.63 27.0725C139.033 26.0805 139.586 25.2125 140.289 24.4685C141.002 23.7142 141.828 23.1252 142.769 22.7015C143.709 22.2778 144.711 22.066 145.776 22.066C146.985 22.066 148.09 22.3243 149.093 22.841C150.105 23.3473 150.963 24.0448 151.666 24.9335C152.368 25.8222 152.88 26.8348 153.2 27.9715C153.521 29.1082 153.593 30.2965 153.417 31.5365H142.087C142.231 32.1152 142.469 32.637 142.8 33.102C143.13 33.5567 143.549 33.9235 144.055 34.2025C144.562 34.4712 145.135 34.6107 145.776 34.621C146.437 34.6313 147.036 34.4763 147.574 34.156C148.121 33.8253 148.576 33.381 148.938 32.823L152.797 33.722C152.167 35.0963 151.227 36.2227 149.976 37.101C148.726 37.969 147.326 38.403 145.776 38.403ZM141.963 28.7H149.589C149.475 28.08 149.232 27.522 148.86 27.026C148.499 26.5197 148.049 26.1167 147.512 25.817C146.974 25.5173 146.396 25.3675 145.776 25.3675C145.156 25.3675 144.582 25.5173 144.055 25.817C143.528 26.1063 143.079 26.5042 142.707 27.0105C142.345 27.5065 142.097 28.0697 141.963 28.7ZM155.927 38V16.3H163.677C164.855 16.3 165.92 16.5945 166.87 17.1835C167.831 17.7725 168.591 18.563 169.149 19.555C169.707 20.547 169.986 21.6372 169.986 22.8255C169.986 24.0448 169.696 25.1505 169.118 26.1425C168.549 27.1242 167.785 27.9095 166.824 28.4985C165.863 29.0772 164.814 29.3665 163.677 29.3665H159.709V38H155.927ZM159.709 25.5845H163.274C163.812 25.5845 164.302 25.4502 164.747 25.1815C165.191 24.9128 165.542 24.5512 165.801 24.0965C166.069 23.6418 166.204 23.1355 166.204 22.5775C166.204 22.0092 166.069 21.4977 165.801 21.043C165.542 20.5883 165.191 20.2267 164.747 19.958C164.302 19.6893 163.812 19.555 163.274 19.555H159.709V25.5845ZM183.617 22.5H187.399V38H183.617L183.447 36.078C183.023 36.7703 182.46 37.3335 181.757 37.7675C181.065 38.1912 180.243 38.403 179.293 38.403C178.146 38.403 177.071 38.186 176.069 37.752C175.066 37.318 174.183 36.7187 173.418 35.954C172.664 35.1893 172.07 34.3058 171.636 33.3035C171.212 32.3012 171 31.2265 171 30.0795C171 28.9738 171.202 27.9353 171.605 26.964C172.018 25.9927 172.591 25.1402 173.325 24.4065C174.059 23.6728 174.906 23.0993 175.867 22.686C176.828 22.2727 177.861 22.066 178.967 22.066C179.99 22.066 180.905 22.2933 181.711 22.748C182.527 23.2027 183.219 23.7813 183.788 24.484L183.617 22.5ZM179.2 34.7605C180.006 34.7605 180.719 34.559 181.339 34.156C181.959 33.753 182.444 33.2105 182.796 32.5285C183.147 31.8362 183.323 31.0767 183.323 30.25C183.323 29.413 183.147 28.6535 182.796 27.9715C182.444 27.2792 181.953 26.7315 181.323 26.3285C180.703 25.9255 179.995 25.724 179.2 25.724C178.404 25.724 177.675 25.9307 177.014 26.344C176.363 26.747 175.841 27.2895 175.449 27.9715C175.066 28.6535 174.875 29.413 174.875 30.25C174.875 31.087 175.071 31.8465 175.464 32.5285C175.857 33.2105 176.379 33.753 177.03 34.156C177.691 34.559 178.414 34.7605 179.2 34.7605ZM190.703 38L190.688 22.5H194.47L194.485 23.8795C195.012 23.3215 195.643 22.8823 196.376 22.562C197.11 22.2313 197.9 22.066 198.748 22.066C199.316 22.066 199.884 22.1487 200.453 22.314L198.965 26.127C198.572 25.972 198.179 25.8945 197.787 25.8945C197.177 25.8945 196.619 26.0443 196.113 26.344C195.617 26.6333 195.219 27.0312 194.919 27.5375C194.63 28.0335 194.485 28.5863 194.485 29.196V38H190.703ZM216.233 38H211.878L208.344 31.9085L206.174 34.497V38H202.392V14.75H206.174V28.6225L211.304 22.5H216.249L210.932 28.8395L216.233 38Z" fill="white"/>
<defs>
<clipPath id="clip0_2062_7803">
<rect width="44.295" height="53.2284" fill="white" transform="translate(0 0.302979)"/>
</clipPath>
</defs>
</svg>
